inDegrees=yes
name=ik_MT_012005D6_009-001_orientations.mot
DataType=double
version=3
OpenSimVersion=4.3-2021-08-27-4bc7ad9
endheader
time	pelvis_tilt	pelvis_list	pelvis_rotation	pelvis_tx	pelvis_ty	pelvis_tz	hip_flexion_r	hip_adduction_r	hip_rotation_r	knee_angle_r	knee_angle_r_beta	ankle_angle_r	subtalar_angle_r	mtp_angle_r	hip_flexion_l	hip_adduction_l	hip_rotation_l	knee_angle_l	knee_angle_l_beta	ankle_angle_l	subtalar_angle_l	mtp_angle_l	lumbar_extension	lumbar_bending	lumbar_rotation	arm_flex_r	arm_add_r	arm_rot_r	elbow_flex_r	pro_sup_r	wrist_flex_r	wrist_dev_r	arm_flex_l	arm_add_l	arm_rot_l	elbow_flex_l	pro_sup_l	wrist_flex_l	wrist_dev_l
10.00000000000008	7.43796050071685	2.210441472080103	-3.085011921210864	0	0.9399999999999999	0	-13.67163356137875	-4.80325725781231	4.751031678062458	0.0446987383463374	0.0007801401556310331	8.562669696566465	0	0	-14.68858078980899	-4.282253097997131	-3.664960532019916	0.3655757921120483	0.006380501237941558	7.202121212506656	0	0	-2.515983561182706	0.3164145141230307	2.43602206818305	-7.769820100090222	-1.755322526348776	-3.465324625770946	0.2025798406411691	6.316960365642765	0	0	-7.79207650669198	-0.6067333214280695	-4.383054230915723	5.129161958458729	7.344856158180121	0	0
10.01666666666674	7.649411434116774	2.042001455091026	-3.074816803970735	0	0.9399999999999999	0	-15.29706628792682	-7.573454515753764	5.403310686274494	0.05374629173473755	0.000938049751508585	8.718328430868768	0	0	-14.54284641537503	-4.745077405612685	-3.751550716855179	0.2827419522254021	0.004934777999849775	6.707301750436616	0	0	-2.461210761679262	0.5766396892976667	2.404684656773627	-7.96748985591151	-1.424082449930512	-3.486385567187062	0.187378521953093	6.338651330076876	0	0	-7.946893294041786	-0.5627412861029035	-4.662546670446053	5.155134307570737	7.204480430092509	0	0
10.03333333333341	7.899067575193415	1.87936985322096	-3.04169417948852	0	0.9399999999999999	0	-17.05361451293507	-10.22514401907201	5.753127142828236	0.06282023025886332	0.001096419854878135	9.841287573561143	0	0	-14.52605061228122	-5.058622336959401	-3.829177931829529	0.2263452708659801	0.00395047022292975	6.314926513045392	0	0	-2.591660799882983	0.6908593732382814	2.374559499201307	-7.974560615142425	-0.969058823113395	-3.505362436266959	0.1737709960468678	6.39125032120069	0	0	-7.852536409943476	-0.613257314244169	-4.986834949192658	4.995002080329411	7.121598620435834	0	0
10.05000000000008	7.87667979817238	1.556100505093321	-2.8927485897096	0	0.9399999999999999	0	-18.3015500915042	-12.31588145126259	5.93942246870759	0.07250616086530605	0.001265471235080251	11.49358484262222	0	0	-14.22537882167932	-5.475769485346767	-3.834002292227477	0.1830722568321131	0.003195213650777058	6.003506991165594	0	0	-2.404408480947356	0.8308601380382882	2.313233569956429	-7.962697907832743	-0.4544036627915066	-3.545906082149682	0.1671735312772293	6.382079475004426	0	0	-7.861472848501881	-0.7980553018203513	-5.246324590239687	4.769910351172141	7.049944796426801	0	0
10.06666666666675	7.68298756712032	1.202594478043469	-2.685855649157434	0	0.9399999999999999	0	-19.21742115162555	-13.74120612512967	6.294841186519683	0.08274390715523154	0.001444153615823285	13.60833075766434	0	0	-13.81875144090787	-5.863552511538598	-3.787380788834132	0.1669214271484939	0.002913328495869068	5.811283778858869	0	0	-2.023331313267632	0.9142221303080454	2.244661874481349	-7.879794471702129	-0.02998043563496964	-3.621869892613259	0.1681508341911809	6.369119829001351	0	0	-7.901279309024333	-1.014242010889383	-5.440324099212828	4.448438516015189	7.062682165605659	0	0
10.08333333333341	7.467528829715475	0.9178204282191964	-2.46316922786515	0	0.9399999999999999	0	-19.73269172420276	-14.72209792248164	6.724085641284406	0.09372907794712161	0.00163588101503568	15.90811833553276	0	0	-13.42768511277216	-6.025608068838483	-3.643073323913029	0.162783085855533	0.002841100814735661	5.79143567432942	0	0	-1.6212693180773	0.8527898905058811	2.221624290169965	-7.753506410328644	0.2698028426314864	-3.698116935360878	0.1827395479334959	6.278889319792594	0	0	-7.955370365343457	-1.235635601453781	-5.534570414621439	4.024174682223961	7.141130368529753	0	0
10.10000000000008	7.318957323943599	0.6079989487826748	-2.143644379577151	0	0.9399999999999999	0	-20.47145916134734	-16.03547302317751	6.315363352595242	0.09937564283459457	0.001734432163749586	19.4703626881374	0	0	-13.06286061995024	-6.183345058385726	-3.403802228870977	0.1612447445178462	0.002814251693373493	5.685674650490329	0	0	-1.469394368011977	0.7331727995708033	2.163130689772435	-7.376393768873954	0.5099615098614489	-3.773724458112242	0.2080542208282284	6.151333165490402	0	0	-7.832139162793879	-1.464237627036878	-5.529045046233011	3.53133351488454	7.243082438444458	0	0
10.11666666666675	7.131321355067234	0.1528882856289327	-1.686438203277366	0	0.9399999999999999	0	-20.62998492428278	-17.48051549509861	4.979028252524067	0.09914135621041177	0.001730343090764213	21.59254603738067	0	0	-12.66008438966831	-6.521660617564317	-3.070476526703407	0.1649188262978801	0.002878376517422618	5.65068536787536	0	0	-1.37903808588863	0.8123494390052144	1.98061876040845	-6.916046384391506	0.4812138225189385	-3.801891217882731	0.2465617905627066	5.948450821459229	0	0	-7.634487776459732	-1.556575403633968	-5.434556080858827	3.016300300825394	7.311617335396049	0	0
10.13333333333342	6.945809348768914	-0.3551126914348042	-1.147238303525884	0	0.9399999999999999	0	-19.90401739568055	-17.55664108746968	3.953510117748102	0.09608423156736474	0.001676986200099186	20.64030871576761	0	0	-12.22684228185524	-6.834286605825731	-2.653103383339081	0.172004560156702	0.003002045903179103	5.526002345295695	0	0	-1.347857271287381	0.8640880064354636	1.758969572354554	-6.443497936125264	0.3584637397565516	-3.771189814930015	0.3284169759448093	5.581702264170107	0	0	-7.433197498541723	-1.606900751011067	-5.280787699989371	2.494702452069892	7.39248095187304	0	0
10.15000000000008	6.644191895516661	-0.9559617550054497	-0.5073571799634864	0	0.9399999999999999	0	-18.97475447963341	-16.22446999082169	3.524566896623182	0.1073455797276913	0.001873533803710291	19.32101508948862	0	0	-11.59471589326201	-7.130649924410633	-2.077254213992132	0.1847007970683401	0.003223637039900425	5.313526311480524	0	0	-1.302668778567468	0.9347586583098516	1.435649614029915	-5.90664115946486	0.2398667852030283	-3.657009367746238	0.5127321482285921	5.04732033414682	0	0	-7.116262346879632	-1.577000551711317	-5.087088201614468	1.860255285940063	7.51596952026981	0	0
10.16666666666675	6.216538345654467	-1.679803606594376	0.09835948388856491	0	0.9399999999999999	0	-18.35136400377912	-14.96995666628535	3.216900752482807	0.118055007234743	0.002060448574711992	18.65825432014552	0	0	-10.79689779904613	-7.525898689659549	-1.558087024915332	0.20206661836986	0.003526727798924914	5.04569231617609	0	0	-1.126631879038623	1.193319996780471	1.089456775393642	-5.469405311892418	-0.01863797660484945	-3.464922355506145	0.9683168726029808	4.335533377576271	0	0	-6.881541955106381	-1.286024444633679	-4.94526182110053	1.16209960860875	7.700984787107251	0	0
10.18333333333342	5.896497436131433	-2.180731059446416	0.4167350249697446	0	0.9399999999999999	0	-17.93364197988724	-14.53435981144678	2.986605832266137	0.1218859129161529	0.002127310492185952	18.22668744547181	0	0	-10.14923613730959	-7.676874634499402	-1.270549746731102	0.2185491353436104	0.00381440198913271	4.771686064708637	0	0	-0.9869808002667433	1.2036083400174	1.141213748320671	-5.417813922278254	-0.2572703362489192	-3.391465721798046	1.792084763879985	3.484132893857388	0	0	-6.916577503259962	-0.900860054603058	-4.754812199273733	0.6503081086925554	8.019232093260756	0	0
